<svg xmlns="http://www.w3.org/2000/svg" viewBox="0 0 1000 500">
  <defs>
    <style>
      .dot { fill: currentColor; }
    </style>
  </defs>
  <g class="world-dots">
    <!-- North America -->
    <circle class="dot" cx="150" cy="120" r="3"/>
    <circle class="dot" cx="165" cy="115" r="3"/>
    <circle class="dot" cx="180" cy="110" r="3"/>
    <circle class="dot" cx="195" cy="115" r="3"/>
    <circle class="dot" cx="210" cy="120" r="3"/>
    <circle class="dot" cx="225" cy="125" r="3"/>
    <circle class="dot" cx="140" cy="135" r="3"/>
    <circle class="dot" cx="155" cy="140" r="3"/>
    <circle class="dot" cx="170" cy="145" r="3"/>
    <circle class="dot" cx="185" cy="150" r="3"/>
    <circle class="dot" cx="200" cy="145" r="3"/>
    <circle class="dot" cx="215" cy="140" r="3"/>
    <circle class="dot" cx="230" cy="145" r="3"/>
    <circle class="dot" cx="245" cy="150" r="3"/>
    <circle class="dot" cx="130" cy="155" r="3"/>
    <circle class="dot" cx="145" cy="160" r="3"/>
    <circle class="dot" cx="160" cy="165" r="3"/>
    <circle class="dot" cx="175" cy="170" r="3"/>
    <circle class="dot" cx="190" cy="165" r="3"/>
    <circle class="dot" cx="205" cy="160" r="3"/>
    <circle class="dot" cx="220" cy="165" r="3"/>
    <circle class="dot" cx="235" cy="170" r="3"/>
    <circle class="dot" cx="250" cy="165" r="3"/>
    <circle class="dot" cx="120" cy="175" r="3"/>
    <circle class="dot" cx="135" cy="180" r="3"/>
    <circle class="dot" cx="150" cy="185" r="3"/>
    <circle class="dot" cx="165" cy="190" r="3"/>
    <circle class="dot" cx="180" cy="195" r="3"/>
    <circle class="dot" cx="195" cy="190" r="3"/>
    <circle class="dot" cx="210" cy="185" r="3"/>
    <circle class="dot" cx="225" cy="190" r="3"/>
    <circle class="dot" cx="240" cy="195" r="3"/>
    <circle class="dot" cx="255" cy="190" r="3"/>
    <circle class="dot" cx="175" cy="210" r="3"/>
    <circle class="dot" cx="190" cy="215" r="3"/>
    <circle class="dot" cx="205" cy="220" r="3"/>
    <circle class="dot" cx="220" cy="215" r="3"/>
    
    <!-- Central America & Caribbean -->
    <circle class="dot" cx="200" cy="235" r="3"/>
    <circle class="dot" cx="215" cy="240" r="3"/>
    <circle class="dot" cx="230" cy="235" r="3"/>
    <circle class="dot" cx="245" cy="230" r="3"/>
    <circle class="dot" cx="260" cy="235" r="3"/>
    <circle class="dot" cx="275" cy="240" r="3"/>
    
    <!-- South America -->
    <circle class="dot" cx="260" cy="260" r="3"/>
    <circle class="dot" cx="275" cy="265" r="3"/>
    <circle class="dot" cx="290" cy="270" r="3"/>
    <circle class="dot" cx="280" cy="285" r="3"/>
    <circle class="dot" cx="295" cy="290" r="3"/>
    <circle class="dot" cx="310" cy="295" r="3"/>
    <circle class="dot" cx="270" cy="305" r="3"/>
    <circle class="dot" cx="285" cy="310" r="3"/>
    <circle class="dot" cx="300" cy="315" r="3"/>
    <circle class="dot" cx="315" cy="310" r="3"/>
    <circle class="dot" cx="260" cy="325" r="3"/>
    <circle class="dot" cx="275" cy="330" r="3"/>
    <circle class="dot" cx="290" cy="335" r="3"/>
    <circle class="dot" cx="305" cy="340" r="3"/>
    <circle class="dot" cx="250" cy="350" r="3"/>
    <circle class="dot" cx="265" cy="355" r="3"/>
    <circle class="dot" cx="280" cy="360" r="3"/>
    <circle class="dot" cx="295" cy="365" r="3"/>
    <circle class="dot" cx="255" cy="375" r="3"/>
    <circle class="dot" cx="270" cy="380" r="3"/>
    <circle class="dot" cx="285" cy="385" r="3"/>
    <circle class="dot" cx="260" cy="400" r="3"/>
    <circle class="dot" cx="275" cy="405" r="3"/>
    <circle class="dot" cx="265" cy="420" r="3"/>
    
    <!-- Europe -->
    <circle class="dot" cx="440" cy="100" r="3"/>
    <circle class="dot" cx="455" cy="105" r="3"/>
    <circle class="dot" cx="470" cy="100" r="3"/>
    <circle class="dot" cx="485" cy="105" r="3"/>
    <circle class="dot" cx="500" cy="100" r="3"/>
    <circle class="dot" cx="430" cy="115" r="3"/>
    <circle class="dot" cx="445" cy="120" r="3"/>
    <circle class="dot" cx="460" cy="115" r="3"/>
    <circle class="dot" cx="475" cy="120" r="3"/>
    <circle class="dot" cx="490" cy="115" r="3"/>
    <circle class="dot" cx="505" cy="120" r="3"/>
    <circle class="dot" cx="520" cy="115" r="3"/>
    <circle class="dot" cx="420" cy="135" r="3"/>
    <circle class="dot" cx="435" cy="140" r="3"/>
    <circle class="dot" cx="450" cy="135" r="3"/>
    <circle class="dot" cx="465" cy="140" r="3"/>
    <circle class="dot" cx="480" cy="135" r="3"/>
    <circle class="dot" cx="495" cy="140" r="3"/>
    <circle class="dot" cx="510" cy="135" r="3"/>
    <circle class="dot" cx="525" cy="140" r="3"/>
    <circle class="dot" cx="540" cy="135" r="3"/>
    <circle class="dot" cx="430" cy="155" r="3"/>
    <circle class="dot" cx="445" cy="160" r="3"/>
    <circle class="dot" cx="460" cy="155" r="3"/>
    <circle class="dot" cx="475" cy="160" r="3"/>
    <circle class="dot" cx="490" cy="155" r="3"/>
    <circle class="dot" cx="505" cy="160" r="3"/>
    <circle class="dot" cx="520" cy="155" r="3"/>
    
    <!-- Africa -->
    <circle class="dot" cx="460" cy="200" r="3"/>
    <circle class="dot" cx="475" cy="205" r="3"/>
    <circle class="dot" cx="490" cy="200" r="3"/>
    <circle class="dot" cx="505" cy="205" r="3"/>
    <circle class="dot" cx="520" cy="200" r="3"/>
    <circle class="dot" cx="535" cy="205" r="3"/>
    <circle class="dot" cx="450" cy="220" r="3"/>
    <circle class="dot" cx="465" cy="225" r="3"/>
    <circle class="dot" cx="480" cy="220" r="3"/>
    <circle class="dot" cx="495" cy="225" r="3"/>
    <circle class="dot" cx="510" cy="220" r="3"/>
    <circle class="dot" cx="525" cy="225" r="3"/>
    <circle class="dot" cx="540" cy="220" r="3"/>
    <circle class="dot" cx="555" cy="225" r="3"/>
    <circle class="dot" cx="440" cy="245" r="3"/>
    <circle class="dot" cx="455" cy="250" r="3"/>
    <circle class="dot" cx="470" cy="245" r="3"/>
    <circle class="dot" cx="485" cy="250" r="3"/>
    <circle class="dot" cx="500" cy="245" r="3"/>
    <circle class="dot" cx="515" cy="250" r="3"/>
    <circle class="dot" cx="530" cy="245" r="3"/>
    <circle class="dot" cx="545" cy="250" r="3"/>
    <circle class="dot" cx="560" cy="245" r="3"/>
    <circle class="dot" cx="450" cy="270" r="3"/>
    <circle class="dot" cx="465" cy="275" r="3"/>
    <circle class="dot" cx="480" cy="270" r="3"/>
    <circle class="dot" cx="495" cy="275" r="3"/>
    <circle class="dot" cx="510" cy="270" r="3"/>
    <circle class="dot" cx="525" cy="275" r="3"/>
    <circle class="dot" cx="540" cy="270" r="3"/>
    <circle class="dot" cx="555" cy="275" r="3"/>
    <circle class="dot" cx="460" cy="295" r="3"/>
    <circle class="dot" cx="475" cy="300" r="3"/>
    <circle class="dot" cx="490" cy="295" r="3"/>
    <circle class="dot" cx="505" cy="300" r="3"/>
    <circle class="dot" cx="520" cy="295" r="3"/>
    <circle class="dot" cx="535" cy="300" r="3"/>
    <circle class="dot" cx="550" cy="295" r="3"/>
    <circle class="dot" cx="475" cy="320" r="3"/>
    <circle class="dot" cx="490" cy="325" r="3"/>
    <circle class="dot" cx="505" cy="320" r="3"/>
    <circle class="dot" cx="520" cy="325" r="3"/>
    <circle class="dot" cx="535" cy="320" r="3"/>
    <circle class="dot" cx="490" cy="345" r="3"/>
    <circle class="dot" cx="505" cy="350" r="3"/>
    <circle class="dot" cx="520" cy="345" r="3"/>
    <circle class="dot" cx="505" cy="370" r="3"/>
    
    <!-- Middle East -->
    <circle class="dot" cx="555" cy="170" r="3"/>
    <circle class="dot" cx="570" cy="175" r="3"/>
    <circle class="dot" cx="585" cy="170" r="3"/>
    <circle class="dot" cx="600" cy="175" r="3"/>
    <circle class="dot" cx="560" cy="190" r="3"/>
    <circle class="dot" cx="575" cy="195" r="3"/>
    <circle class="dot" cx="590" cy="190" r="3"/>
    <circle class="dot" cx="605" cy="195" r="3"/>
    <circle class="dot" cx="620" cy="190" r="3"/>
    
    <!-- Russia/Northern Asia -->
    <circle class="dot" cx="560" cy="100" r="3"/>
    <circle class="dot" cx="580" cy="95" r="3"/>
    <circle class="dot" cx="600" cy="100" r="3"/>
    <circle class="dot" cx="620" cy="95" r="3"/>
    <circle class="dot" cx="640" cy="100" r="3"/>
    <circle class="dot" cx="660" cy="95" r="3"/>
    <circle class="dot" cx="680" cy="100" r="3"/>
    <circle class="dot" cx="700" cy="95" r="3"/>
    <circle class="dot" cx="720" cy="100" r="3"/>
    <circle class="dot" cx="740" cy="95" r="3"/>
    <circle class="dot" cx="760" cy="100" r="3"/>
    <circle class="dot" cx="780" cy="105" r="3"/>
    <circle class="dot" cx="555" cy="120" r="3"/>
    <circle class="dot" cx="575" cy="115" r="3"/>
    <circle class="dot" cx="595" cy="120" r="3"/>
    <circle class="dot" cx="615" cy="115" r="3"/>
    <circle class="dot" cx="635" cy="120" r="3"/>
    <circle class="dot" cx="655" cy="115" r="3"/>
    <circle class="dot" cx="675" cy="120" r="3"/>
    <circle class="dot" cx="695" cy="115" r="3"/>
    <circle class="dot" cx="715" cy="120" r="3"/>
    <circle class="dot" cx="735" cy="115" r="3"/>
    <circle class="dot" cx="755" cy="120" r="3"/>
    <circle class="dot" cx="775" cy="125" r="3"/>
    
    <!-- Central/South Asia -->
    <circle class="dot" cx="620" cy="140" r="3"/>
    <circle class="dot" cx="640" cy="145" r="3"/>
    <circle class="dot" cx="660" cy="140" r="3"/>
    <circle class="dot" cx="680" cy="145" r="3"/>
    <circle class="dot" cx="700" cy="140" r="3"/>
    <circle class="dot" cx="630" cy="165" r="3"/>
    <circle class="dot" cx="650" cy="170" r="3"/>
    <circle class="dot" cx="670" cy="165" r="3"/>
    <circle class="dot" cx="690" cy="170" r="3"/>
    <circle class="dot" cx="710" cy="165" r="3"/>
    <circle class="dot" cx="640" cy="190" r="3"/>
    <circle class="dot" cx="660" cy="195" r="3"/>
    <circle class="dot" cx="680" cy="190" r="3"/>
    <circle class="dot" cx="700" cy="195" r="3"/>
    
    <!-- India -->
    <circle class="dot" cx="650" cy="215" r="3"/>
    <circle class="dot" cx="670" cy="220" r="3"/>
    <circle class="dot" cx="690" cy="215" r="3"/>
    <circle class="dot" cx="660" cy="240" r="3"/>
    <circle class="dot" cx="680" cy="245" r="3"/>
    <circle class="dot" cx="670" cy="265" r="3"/>
    <circle class="dot" cx="685" cy="285" r="3"/>
    
    <!-- Southeast Asia -->
    <circle class="dot" cx="710" cy="220" r="3"/>
    <circle class="dot" cx="730" cy="225" r="3"/>
    <circle class="dot" cx="750" cy="220" r="3"/>
    <circle class="dot" cx="720" cy="245" r="3"/>
    <circle class="dot" cx="740" cy="250" r="3"/>
    <circle class="dot" cx="760" cy="245" r="3"/>
    <circle class="dot" cx="730" cy="270" r="3"/>
    <circle class="dot" cx="750" cy="275" r="3"/>
    <circle class="dot" cx="770" cy="270" r="3"/>
    <circle class="dot" cx="740" cy="295" r="3"/>
    <circle class="dot" cx="760" cy="300" r="3"/>
    <circle class="dot" cx="780" cy="295" r="3"/>
    
    <!-- China/East Asia -->
    <circle class="dot" cx="720" cy="145" r="3"/>
    <circle class="dot" cx="740" cy="150" r="3"/>
    <circle class="dot" cx="760" cy="145" r="3"/>
    <circle class="dot" cx="780" cy="150" r="3"/>
    <circle class="dot" cx="730" cy="170" r="3"/>
    <circle class="dot" cx="750" cy="175" r="3"/>
    <circle class="dot" cx="770" cy="170" r="3"/>
    <circle class="dot" cx="790" cy="175" r="3"/>
    <circle class="dot" cx="740" cy="195" r="3"/>
    <circle class="dot" cx="760" cy="200" r="3"/>
    <circle class="dot" cx="780" cy="195" r="3"/>
    <circle class="dot" cx="800" cy="200" r="3"/>
    
    <!-- Japan -->
    <circle class="dot" cx="820" cy="155" r="3"/>
    <circle class="dot" cx="835" cy="165" r="3"/>
    <circle class="dot" cx="830" cy="180" r="3"/>
    <circle class="dot" cx="840" cy="195" r="3"/>
    
    <!-- Indonesia -->
    <circle class="dot" cx="750" cy="320" r="3"/>
    <circle class="dot" cx="770" cy="325" r="3"/>
    <circle class="dot" cx="790" cy="320" r="3"/>
    <circle class="dot" cx="810" cy="325" r="3"/>
    <circle class="dot" cx="830" cy="320" r="3"/>
    
    <!-- Australia -->
    <circle class="dot" cx="800" cy="350" r="3"/>
    <circle class="dot" cx="820" cy="355" r="3"/>
    <circle class="dot" cx="840" cy="350" r="3"/>
    <circle class="dot" cx="860" cy="355" r="3"/>
    <circle class="dot" cx="790" cy="375" r="3"/>
    <circle class="dot" cx="810" cy="380" r="3"/>
    <circle class="dot" cx="830" cy="375" r="3"/>
    <circle class="dot" cx="850" cy="380" r="3"/>
    <circle class="dot" cx="870" cy="375" r="3"/>
    <circle class="dot" cx="800" cy="400" r="3"/>
    <circle class="dot" cx="820" cy="405" r="3"/>
    <circle class="dot" cx="840" cy="400" r="3"/>
    <circle class="dot" cx="860" cy="405" r="3"/>
    <circle class="dot" cx="810" cy="425" r="3"/>
    <circle class="dot" cx="830" cy="430" r="3"/>
    <circle class="dot" cx="850" cy="425" r="3"/>
    
    <!-- New Zealand -->
    <circle class="dot" cx="900" cy="420" r="3"/>
    <circle class="dot" cx="905" cy="440" r="3"/>
    
    <!-- Greenland -->
    <circle class="dot" cx="340" cy="70" r="3"/>
    <circle class="dot" cx="360" cy="75" r="3"/>
    <circle class="dot" cx="380" cy="70" r="3"/>
    <circle class="dot" cx="350" cy="90" r="3"/>
    <circle class="dot" cx="370" cy="95" r="3"/>
    
    <!-- Iceland -->
    <circle class="dot" cx="400" cy="85" r="3"/>
    <circle class="dot" cx="415" cy="90" r="3"/>
  </g>
</svg>


